<svg xmlns="http://www.w3.org/2000/svg" xmlns:xlink="http://www.w3.org/1999/xlink" height="336" preserveAspectRatio="none" viewBox="-120 -168 240 336" width="240" xmlns:v="https://vecta.io/nano"><defs><symbol id="A" viewBox="-500 -500 1000 1000" preserveAspectRatio="xMinYMid"><path d="M50-460h200m-100 0v710a100 100 0 0 1-400 0v-30" stroke="red" stroke-width="80" stroke-linecap="square" stroke-miterlimit="1.5" fill="none"/></symbol><symbol id="B" viewBox="-600 -600 1200 1200" preserveAspectRatio="xMinYMid"><path d="M-400 0C-350 0 0-450 0-500 0-450 350 0 400 0 350 0 0 450 0 500 0 450-350 0-400 0z" fill="red"/></symbol><symbol id="C" preserveAspectRatio="none" viewBox="0 0 1300 2000"><g transform="matrix(-1 0 0 1 1300 0)"><g stroke="#44f" stroke-linecap="round" stroke-linejoin="round"><path stroke-width="3" fill="none" d="M85 590c-4.701 8.725-5.187 17.099 0 25m3.71 6.884c-4.701 8.725-5.187 17.099 0 25m0 10c-4.701 8.725-5.187 17.099 0 25m0 5c-4.701 8.725-5.187 17.099 0 25M130 510c0 25 10 30 10 30m-89.072 57.5c-1.131 2.58-1.339 5.774 0 10m0 23.024c-1.131 2.58-1.339 5.774 0 10m0 24.476c-1.131 2.58-1.339 5.774 0 10m0 25c-1.131 2.58-1.339 5.774 0 10m0-13.841c-1.131 2.58-1.339 5.774 0 10M725 500c25-10 40-10 50-5m-70-240c-30-20-60.951-7.28-90 15m170 5c24.496-30.289 50.876-35.961 70-25m-162.46 8.604c5.799 4.009 9.635 10.975 9.635 18.896 0 12.426-9.441 22.5-21.088 22.5S660 289.926 660 277.5c0-3.285.66-6.406 1.846-9.22m191.278-6.541C860.1 265.138 865 273.153 865 282.5c0 12.426-8.662 22.5-19.347 22.5s-19.347-10.074-19.347-22.5c0-3.816.817-7.411 2.259-10.56M835 317.323c11.292 3.969 26.1-.362 27.069-2.323m-344.1 194.822C557.538 533.358 604.489 555.092 650 555m-124.631-56.734C565.472 522.392 613.488 545.094 660 545"/><use xlink:href="#B" height="200" width="200" transform="matrix(1 0 0 .8 550 920)" stroke-width="36"/></g><use xlink:href="#B" height="50" width="50" transform="matrix(.898794 -.350697 .438371 .719035 860.57087 588.791542)"/><use xlink:href="#B" height="50" width="50" transform="matrix(.927184 -.299685 .374607 .741747 819.455239 611.948455)"/><use xlink:href="#B" height="50" width="50" transform="matrix(.970296 -.193538 .241922 .776237 775.694559 624.432523)"/><use xlink:href="#B" height="50" width="50" transform="matrix(.994522 -.083623 .104528 .795618 729.523741 632.200131)"/><use xlink:href="#B" height="50" width="50" transform="matrix(1 0 0 .8 681 635)"/><use xlink:href="#B" height="50" width="50" transform="matrix(.996195 .069725 -.087156 .796956 633.274026 631.332991)"/><use xlink:href="#B" height="50" width="50" transform="matrix(.984808 .138919 -.173648 .787846 586.721011 623.830881)"/><use xlink:href="#B" height="50" width="50" transform="matrix(.965926 .207055 -.258819 .772741 542.32233 612.505103)"/></g></symbol><symbol id="D" preserveAspectRatio="none" viewBox="0 0 1300 2000"><path stroke="#44f" stroke-linecap="round" stroke-linejoin="round" stroke-width="6" fill="none" d="M100 709.952V1610L0 1710M100 678.111v13.911m0-46.99v17.312m0-52.554v14.839m0-227.219v197.232M0 0l100 100v196.63m.156 910.645c107.997 79.347 171.737 190.717 199.486 315.914M207.3 545.261c238.076 301.583 196.382 620.395 53.375 860.345m97.499-238.989l295.531-300.145M365.264 541.561l409.601 461.39M650 870.236V1005m-15-119.531v235.336m-15-220.102v203.205m-15-187.971v171.074m-15-155.84v138.943m-15-123.709v106.813m-15-91.578v74.682m-15-59.447v42.551m-15-27.316v10.42M408.006 544.65L795.9 981.588M444.424 540.616l372.51 419.609M368.801 1110.75l263.861-267.981m-278.133-9.948l141.618-143.829M344.459 797.973l130.644-132.684m-330.654-78.255l117.636-78.424m678.016-48.159l259.692 70.425m-317.744-6.336c-41.333 34.618-88.82 55.864-141.033 63.696-77.195 11.579-165.246-6.435-258.699-56.453m-29.288 6.587c103.513 59.813 202.907 82.851 290.956 69.644 86.565-12.985 161.584-61.304 217.217-141.821m-110.79 57.636c-33.861 23.766-71.466 38.494-112.363 44.628-68.314 10.247-147.235-4.216-232.498-47.14m51.833 146.536c141.56 33.774 280.148 12.039 377.1-68.721m-3.607-65.101l17.164 274.628m2.725-296.398l14.861 237.784m-364.529-33.256c123.687 18.042 244.26-3.946 336.972-69.989m-177.938 70.129C767.967 741.662 783.721 787.209 800 810c19.662 27.527 60.973 70.517 77.718 87.621m-90.869-185.342C795.124 737.784 809.834 778.767 825 800c12.464 17.45 33.628 41.114 51.719 60.458m-63.665-154.497C821.503 731.58 835.544 769.762 850 790c10.843 15.18 28.27 35.063 44.53 52.714m-55.889-144.977C847.145 723.316 860.874 760.224 875 780c13.414 18.779 36.904 44.756 55.795 64.8M153.972 662.331c155.995 227.656 133.911 446.158 39.015 633.202m1006.941-580.027c-53.227-48.045-91.438-105.975-116.853-171.387-6.273-16.146-11.767-32.747-16.514-49.768m132.263 259.681c-86.122-69.992-139.221-162.657-165.48-268.012m111.257 29.951c3.51 27.018 30.401 77.532 54.943 106.167M80 240L0 160m0-40l80 80m0 80L0 200m80 355L0 475m0-40l80 80m0 355L0 790m0-40l80 80m0 80L0 830m80 355l-80-80m0-40l80 80m0 80l-80-80m80 355l-80-80m0-40l80 80m0 80l-80-80m80-744.174V1580l-80 80M80 404.212v182.703M0 50l80 80v170.958m512.661 581.811l-100-110c-20-30 10-60 40-40l100 110m-94.138 95.607L440 830c-20-30 10-60 40-40l98.193 108.012m-89.308 90.761L390 880c-20-30 10-60 40-40l98.606 108.467m-162.551-64.385c4.519.868 9.232 2.776 13.945 5.918l98.886 108.774m-39.626 40.411l-62.918-69.21m.515 21.566l52.371 57.608m-39.892 40.119l-15.594-17.153m143.236-360.34c-1.078-.089-2.152-.14-3.221-.156-1.297-.018-2.586.017-3.863.105-10.219.706-19.688 4.787-26.588 11.688-11.544 11.544-15.19 30.278-8.35 47.686-5.928-1.859-11.945-2.542-17.723-2.143-10.219.706-19.689 4.787-26.59 11.688-9.67 9.67-13.793 24.386-10.859 39.141-4.226-.84-8.449-1.111-12.551-.828-10.219.706-19.689 4.787-26.59 11.688-9.617 9.617-13.748 24.224-10.908 38.896l-.85-.187a15 15 0 0 0-2.979-.311 15.09 15.09 0 0 0-2.555.208m548.15-45.143L860.2 879.071m-11.27-152.673c30.438-14.244 60.781-29.936 91.001-47.503m-79.702 74.228c27.325-12.679 54.575-26.511 81.729-41.804m-67.89 67.342c23.36-10.811 46.666-22.46 69.903-35.142m-51.546 58.583c17.883-8.34 35.733-17.177 53.545-26.598m-33.556 49.258c11.862-5.596 23.71-11.414 35.541-17.48m-27.996 48.272l18.803-8.809m-90.69-122.66L890 690l-50.349 10.627m20.035 51.211L905 715l-52.691 11.121m21.244 51.638L920 740l-52.691 11.121m23.933 49.452L935 765l-52.691 11.121m64.607 14.53l-49.607 10.47m12.974 21.167l36.743-29.869m-2.452 27.948l-27.265 5.754m4.567 28.001l18.259-14.844m-143.391-28.452L735 805l50-20m31.745 50.826L755 830l45.995-18.398m35.749 49.224L775 855l46.293-18.517m35.452 49.343L795 880l48.076-19.231m22.411 49.466L810 905l50-20m-88.125-133.843c-45.675 6.443-87.52 11.323-128.233 13.293m128.102-13.624L710 745l50-20m24.463 56.691c-37.56 5.866-76.037 10.142-115.741 12.289m115.206-13.42L725 775l48.666-19.466m26.877 55.193c-34.211 5.512-69.172 9.723-105.121 12.221l-.338.024m125.478 12.752c-33.673 5.426-68.073 9.591-103.426 12.104m125.324 12.589c-33.626 5.47-67.975 9.688-103.271 12.263M865 885c-33.784 5.565-68.294 9.873-103.757 12.527m102.932 14.978c-26.572 4.034-53.609 7.264-81.218 9.499m49.582 22.21l-27.537 2.622m40.625-15.363L830 930l27.643-11.057m-719.89-213.351c129.038 202.306 110.486 391.093 29.078 558.571M144.664 587.05c211.433 263.851 187.394 526.874 72.807 741.458m23.227 36.982c127.566-228.18 159.318-517.652-64.978-799.216m-30.94 20.857c211.316 263.769 187.278 526.792 73.073 741.738M176.02 566.162c223.996 281.677 192.244 571.149 64.817 798.824M100 710s9.291 14.995 24.328 10.107C139.668 715.121 156.474 665.06 155 640c-1.468-24.957-15-65-15-70s1.909-14.691 1.909-34.691c0-30-31.909-45.309-34.073-2.527C107.209 545.174 110 550 115 565m0 0c-.676 4.552-10 15-10 20 0 20 8.286 22.809 8.286 22.809M0 602.5c0-9.665 23.505-17.5 52.5-17.5s52.5 7.835 52.5 17.5S81.495 620 52.5 620 0 612.165 0 602.5M0 635c0-7.263 13.907-13.493 33.71-16.141m40.126-.306C94.935 621 110 627.44 110 635c0 9.665-24.624 17.5-55 17.5S0 644.665 0 635m0 35c0-9.665 23.505-17.5 52.5-17.5S105 660.335 105 670s-23.505 17.5-52.5 17.5S0 679.665 0 670m81.191 14.829C95.421 687.851 105 693.514 105 700c0 9.665-21.266 17.5-47.5 17.5S10 709.665 10 700c0-5.87 7.845-11.066 19.884-14.24m41.47-99.406L0 515m.02-205.145C97.554 306.607 187.046 278.578 265 215 242.582 308.966 186.547 390.542.192 424.084m-.166-94.219c80.508-2.603 156.867-21.843 225.872-63.117-10.857 22.346-25.478 42.958-46.271 61.547C143.531 360.564 88.07 387.481.303 403.733m403.481-206.109C336.263 339.655 347.37 430.787 320 465c-20 25-55 30-55 0 0-35 34.9-14.626 35-10m120.15-260.264C350.946 338.298 360.638 429.107 335 465c-25 35-70 30-70 0m171.417-272.89C365.772 337.154 375.059 428.375 350 465c-65 95-110 35-110 0 0-75 90-50 85-10m127.669-265.49C380.329 335.873 384.964 425.072 365 465c-20 40-77.602 65.61-94.572 48.745m198.335-326.44C395.282 334.978 400.064 424.872 380 465c-20 40-64.5 68.136-85 55m189.862-334.903C410.176 334.001 413.892 422.783 398.06 465c-15 40-63.998 80.555-88.06 60m190.989-342.134c-75.72 150.318-68.162 241.763-84.868 283.883C395 520 361.556 552.647 333.873 532.762M517.083 180.7c-76.908 151.611-70.007 243.962-83.777 287.36C420 510 385.05 555.512 355.845 537.641m177.108-358.65c-77.812 152.624-69.804 245.358-79.837 289.944C445 505 414.577 561.022 378.609 540.433m170.223-363.161c-78.666 153.693-61.875 251.63-76.344 295.16C460 510 433.177 553.423 404.187 543.706m160.527-368.149c-79.667 154.671-60.427 249.282-68.044 294.69C490 510 460.572 546.713 428.474 539.875M580 175c-80 155-52.502 250.817-63.085 295.684-6.915 29.317-28.079 68.333-57.542 65.65M595 175c-80 155-40.203 258.598-57.401 301.367-14.963 37.211-34.463 50.386-51.885 51.962m387.21-362.96C878.475 185.244 890 227.409 890 235c0 10-10 40-10 55s-10 70-20 95-45 90-50 100-9.809 39.563-24.809 44.563S735 550 720 540s-20-15-30-15-30 5-45 0-85-15-90-30c-4.379-13.209-10-20-12.377-37.814M600 250c38.334-16.373 66.186-53.253 135-10h0l-5 5c-36.119-35.307-82.46-18.225-130 5h0m285-10c-35-15-45-30-95 5h0c30-15 66.711-25.583 95-5h0m-95 5c-5.615 2.796-7.258 21.124-5 30 2.466 9.691 15 50 15 60s8.935 52.186 8.935 57.186C808.935 402.186 790 410 775 410m-35-40c-20.808 1.708-37.884 39.089 9.317 31.367C779.331 396.457 760 390 730 400m-35 40v15l10-10-10-5h0m110-5l-5 10-10-5 15-5h0m-105 10c15 0 30-10 35-10s15 10 20 10 15-10 20-10 10 5 15 5m-55 30c10.017 10.832 40 15 40-10M595 285c35 5 80-30 120-30m-80 25c-5 15 55 25 70 15s20-5 20-5m65.923-4.735c20 0 52.332-22.8 70-25s20 10 20 10M790 285c20 10 33.071 20 52.775 20S880 290 880 290m2.739-123.781C916.805 221.491 899.287 285.408 900 345c.877 16.276 15 10 20 5m-44.129-27.097C862.68 401.749 940 392.043 940 350c0-40-40-25-40-5m-5 35c0 45 20 70 35 45m-66.742-47.322C863.149 465.861 958.062 484.498 950 420c-5-40-50-20-49.354-3.324m-50.936-7.257c3.982 49.733 43.724 72.867 75.29 60.581 18.663-7.264 21.42-17.97 21.126-24.435m-109.745-10.339C844.554 477.951 902.816 504.171 930 470m-103.042-17.02c9.23 40.691 44.654 58.763 73.332 47.601 9.377-3.79 17.976-11.415 19.488-21.63m-101.294-10.206c11.128 36.612 44.521 52.456 71.806 41.836 10.08-3.923 15.519-8.85 18.345-13.571m-99.206-10.358c6.149 37.142 80.063 56.922 91.04 18.908m19.69-379.78l-34.261-.77-61.848-.84c-144.617-.628-291.435 8.513-441.393 36.51l-25.623 4.783M199.524 0L390 200c167.854-31.337 332.223-38.656 495-35L1041.082 0M472.329 571.725c96.126 49.651 189.631 68.816 274.622 56.068 92.087-13.813 172.42-65.876 230.705-150.232l3.633-5.258" transform="matrix(-1 0 0 1 1300 0)"/></symbol><symbol id="E" preserveAspectRatio="none" viewBox="0 0 1300 2000"><path fill="#000" d="M130 1057c-4.057-.057-4.057 6.057 0 6h60c4.057.057 4.057-6.057 0-6zm-10 25c-4.057-.057-4.057 6.057 0 6h85c4.057.057 4.057-6.057 0-6zm-20 27v12h117.996l2.322-12zm0 25v12h112.19l2.612-12zm0 25v12h104.353l3.774-12zm0 25v12h96.806l3.483-12zm17.561 37h68.505l4.935-12h-87.372zm29.898 25h27.866l4.935-12h-46.444zM885.898 125.01l-61.848-.84c-144.617-.628-291.435 8.513-441.393 36.51l-25.893 4.462L390 200c167.854-31.337 332.223-38.656 495-35l35.361-38.408zm48.586 474.122c-96.952 80.76-235.54 102.495-377.1 68.721l43.715 48.936c123.687 18.042 244.26-3.946 336.972-69.989zm-117.55 361.093l-372.51-419.609-36.418 4.035L795.9 981.588zM496.146 688.992L354.528 832.821l-10.069-34.848 130.644-132.684zm381.572 208.629l-17.549-18.39 51.237-55.326 19.389 20.895m-737.809 450.733c94.897-187.044 116.98-405.546-39.015-633.202-4.979 15.602-9.504 32.46-16.219 43.261 129.038 202.306 110.486 391.093 29.078 558.571z" transform="matrix(-1 0 0 1 1300 0)"/></symbol><symbol id="F" preserveAspectRatio="none" viewBox="0 0 1300 2000"><path fill="#44f" d="M509 758c9 0 28.315-1.237 32 4 19 27 34.047 54.141 62 66 5.895 2.501 10.258 21.901 2 26-38.418 19.069-54.167-44.095-64-71-7.297-19.969-27.054-16.342-31-17-6-1-3.687-8-1-8zm-52.661 57.231c9 0 28.315-1.237 32 4 19 27 34.047 54.141 62 66 5.895 2.501 10.258 21.901 2 26-38.418 19.069-54.167-44.095-64-71-7.297-19.969-27.054-16.342-31-17-6-1-3.687-8-1-8zm-50 50c9 0 28.315-1.237 32 4 19 27 34.047 54.141 62 66 5.895 2.501 10.258 21.901 2 26-38.418 19.069-54.167-44.095-64-71-7.297-19.969-27.054-16.342-31-17-6-1-3.687-8-1-8zm-35.09 49.918c7.579.188 14.956 1.05 17.09 4.082 19 27 34.047 54.141 62 66 5.895 2.501 10.258 21.901 2 26-38.418 19.069-54.167-44.095-64-71-3.549-9.711-10.044-13.842-16.235-15.599m4.186 94.433c7.016 6.682 14.831 12.255 24.049 16.165 5.895 2.501 10.258 21.901 2 26-10.879 5.4-19.941 4.206-27.565-.892M697.25 280c0 11.046-6.1 20-13.625 20-3.614 0-7.079-2.107-9.634-5.858S670 285.304 670 280s1.435-10.391 3.991-14.142 6.021-5.858 9.634-5.858c7.525 0 13.625 8.954 13.625 20zM860 284.506c0 5.382-1.317 10.543-3.661 14.348s-5.524 5.943-8.839 5.943c-6.904 0-12.5-9.085-12.5-20.292s5.596-20.292 12.5-20.292c3.315 0 6.495 2.138 8.839 5.943S860 279.125 860 284.506zm179.288 309.789c-17.009-37.323-29.874-76.645-38.918-117.435l-19.08-4.558-3.633 5.258c-8.474 12.264-17.414 23.846-26.839 34.714l15.044 237.706c19.442-54.632 44.354-106.743 73.427-155.684zm105.312-78.325l55.194 14.905m-55.194-14.905c3.51 27.018 30.401 77.532 54.943 106.167l.251-91.261M137.57 706c-4.348 7.569-8.855 12.681-13.242 14.107C109.291 724.995 100 709.976 100 709.976l.078 496.904c23.977 17.954 45.709 37.081 66.058 57.431C248.239 1096.685 266.791 907.898 137.57 706zM100 1610l-110 110m364.528-887.179l141.618-143.829 20.83 22.783c-1.078-.089-2.152-.14-3.221-.156-1.297-.018-2.586.017-3.863.105-10.219.706-19.688 4.787-26.588 11.688-11.544 11.544-15.19 30.278-8.35 47.686-5.928-1.859-11.945-2.542-17.723-2.143-10.219.706-19.689 4.787-26.59 11.688-9.67 9.67-13.793 24.386-10.859 39.141-4.226-.84-8.449-1.111-12.551-.828-10.219.706-19.689 4.787-26.59 11.688-9.617 9.617-13.748 24.224-10.908 38.896l-.85-.187a15 15 0 0 0-2.979-.311 15.09 15.09 0 0 0-2.555.208zM1100 520a10 10 0 0 1-10 10 10 10 0 0 1-10-10 10 10 0 0 1 10-10 10 10 0 0 1 10 10zm30 65a10 10 0 0 1-10 10 10 10 0 0 1-10-10 10 10 0 0 1 10-10 10 10 0 0 1 10 10zm45 70a10 10 0 0 1-10 10 10 10 0 0 1-10-10 10 10 0 0 1 10-10 10 10 0 0 1 10 10z" transform="matrix(-1 0 0 1 1300 0)"/></symbol><symbol id="G" preserveAspectRatio="none" viewBox="0 0 1300 2000"><path fill="red" d="M199.52148,0l157.66407,165.58203 25.47265,-4.90234c149.95785,-27.99631 296.7759,-37.13788 441.39258,-36.50977 20.65953,0.0897 41.27525,0.37782 61.84766,0.83985l34.47461,1.57031L1040.9492,0h-90.37108l-73.62695,108.70117 -3.26758,-0.0723c-17.43992,-0.38354 -35.10109,-0.6067 -52.80078,-0.6836 -14.19091,-0.0617 -28.39696,-0.0289 -43.67773,0.15235l-7.91602,0.0937L798.26758,0H696.22266l-7.77344,110.40039 -5.35938,0.2207c-28.90564,1.19451 -58.05762,2.96537 -87.60546,5.35938L589.9707,116.42773 570.95508,0H447.89844l45.31445,126.51953 -7.39062,0.95703c-26.19409,3.39116 -52.95007,7.40266 -79.91016,12.12305L402.36914,140.2207 292.63281,0Zm108.34961,0 99.54297,127.19727c23.43187,-4.05137 46.64908,-7.54037 69.50196,-10.58789L435.15039,0Zm275.24414,0 16.92383,103.62695c25.99132,-2.04096 51.6931,-3.60588 77.18946,-4.7207L684.19141,0Zm227.57618,0 -25.73047,96.070312c12.29871,-0.10653 24.2951,-0.175767 35.97461,-0.125 16.66399,0.07238 33.2704,0.301981 49.72461,0.644532L936.08594,0ZM0,50v70l80,80v-70zm0,150v109.85352c27.325054,-0.91104 54.013626,-3.78058 80,-8.81641V280Zm225.89844,66.74805C156.88675,308.02603 80.516023,327.25303 0,329.85352v73.93554c87.941567,-16.24665 143.49015,-43.18838 179.62695,-75.49414 20.79357,-18.58912 35.41481,-39.20115 46.27149,-61.54687zM80,404.4375C56.423649,412.12851 29.870302,418.72246 0,424.09375V435l80,80zm182.08398,104.17188 -54.92968,36.68359c65.5852,82.86393 109.88762,167.06245 137.03125,251.62305L475.10742,665.29297 365.26367,541.56055c-34.415,-10.87756 -70.71377,-12.66012 -103.17969,-32.95117zm863.33402,2.24023 -42.3438,33.26953 9.8067,23.38086h66.5136l-40.5117,50.64062 14.3594,21.42383 61.3808,-10.23047 -17.6699,63.61329 12.2031,12.11523 10.9825,-39.53906 -0.5957,-43.38672 -6.0684,-7.82031 -60.3711,10.0625 36.7149,-45.89453L1156.7402,552.5h-60.0566l46.6523,-36.65625zM0,515v87.5a52.5,17.5 0 0 1 52.5,-17.5 52.5,17.5 0 0 1 18.664062,1.16406zm0,87.5V635c0,-7.26326 13.907429,-13.49298 33.710938,-16.14062l0.300781,-0.002A52.5,17.5 0 0 1 0,602.5ZM0,635v35a52.5,17.5 0 0 1 52.5,-17.5 52.5,17.5 0 0 1 27.5,2.61914v-4.54492C72.493327,651.79671 64.012037,652.5 55,652.5 24.624339,652.5 0,644.66498 0,635Zm0,35v80l80,80V715.41406C73.301978,716.74411 65.642419,717.5 57.5,717.5 31.266474,717.5 10,709.66498 10,700c0,-5.86678 7.836947,-11.05926 19.863281,-14.23438A52.5,17.5 0 0 1 0,670ZM170.15234,567a3.0003,3.0003 0 1 0 0,6h8.42774 0.38086a3.0003,3.0003 0 1 0 0,-6h-0.38086zM72.720703,586.35352A52.5,17.5 0 0 1 80,587.61914v-1.26562zM146.99805,587a3.0003,3.0003 0 1 0 0,6h46.9375 0.35547a3.0003,3.0003 0 1 0 0,-6h-0.35547zm15.47265,20a3.0003,3.0003 0 1 0 0,6h45.8418 0.32422a3.0003,3.0003 0 1 0 0,-6H208.3125ZM80,617.39258a52.5,17.5 0 0 1 -6.863281,1.16601l0.699219,-0.006c2.125467,0.24652 4.170294,0.54449 6.164062,0.86915zM176.95508,627a3.0003,3.0003 0 1 0 0,6h44.98242 0.29688a3.0003,3.0003 0 1 0 0,-6h-0.29688zm13.67187,20a3.0003,3.0003 0 1 0 0,6h44.19922 0.26953a3.0003,3.0003 0 1 0 0,-6h-0.26953zm12.8711,20a3.0003,3.0003 0 1 0 0,6h43.38086 0.25a3.0003,3.0003 0 1 0 0,-6h-0.25zm12.07812,20a3.0003,3.0003 0 1 0 0,6h42.42188a3.0003,3.0003 0 1 0 0,-6zm597.47656,18.96094 -26.20312,6.31836C795.12464,737.78428 809.83353,778.76694 825,800c12.70132,17.78185 34.43655,42.01754 52.74805,61.55859L894.5293,842.71484C878.26925,825.06396 860.84303,805.18024 850,790 835.54393,769.76151 821.50223,731.5797 813.05273,705.96094ZM226.8457,707a3.0003,3.0003 0 1 0 0,6h41.58203a3.0003,3.0003 0 1 0 0,-6zm10.30664,20a3.0003,3.0003 0 1 0 0,6h41.02149a3.0003,3.0003 0 1 0 0,-6zm9.55664,20a3.0003,3.0003 0 1 0 0,6h40.4668a3.0003,3.0003 0 1 0 0,-6zm8.81446,20a3.0003,3.0003 0 1 0 0,6h39.75976 0.15625a3.0003,3.0003 0 1 0 0,-6h-0.15625zm8.08203,20a3.0003,3.0003 0 1 0 0,6h39.14062a3.0003,3.0003 0 1 0 0,-6zm7.35351,20a3.0003,3.0003 0 1 0 0,6h38.60938a3.0003,3.0003 0 1 0 0,-6zm6.51368,20a3.0003,3.0003 0 1 0 0,6h38.26367a3.0003,3.0003 0 1 0 0,-6zM0,830v235l80,80V910Zm283.21289,17a3.0003,3.0003 0 1 0 0,6h37.80859a3.0003,3.0003 0 1 0 0,-6zm5.04297,20a3.0003,3.0003 0 1 0 0,6h37.43945a3.0003,3.0003 0 1 0 0,-6zm4.35352,20a3.0003,3.0003 0 1 0 0,6h37.15234a3.0003,3.0003 0 1 0 0,-6zm3.66796,20a3.0003,3.0003 0 1 0 0,6h36.94532a3.0003,3.0003 0 1 0 0,-6zm2.98633,20a3.0003,3.0003 0 1 0 0,6h36.62695a3.0003,3.0003 0 1 0 0,-6zm2.19727,20a3.0003,3.0003 0 1 0 0,6h36.45312a3.0003,3.0003 0 1 0 0,-6zm1.49023,20a3.0003,3.0003 0 1 0 0,6h36.39844a3.0003,3.0003 0 1 0 0,-6zm0.83008,20a3.0003,3.0003 0 1 0 0,6H340a3.0003,3.0003 0 1 0 0,-6zm0.17383,20a3.0003,3.0003 0 1 0 0,6H340a3.0003,3.0003 0 1 0 0,-6zm-0.48438,20a3.0003,3.0003 0 1 0 0,6h36.41211a3.0003,3.0003 0 1 0 0,-6zm-1.13672,20a3.0003,3.0003 0 1 0 0,6h36.44727a3.0003,3.0003 0 1 0 0,-6zm-1.7871,20a3.0003,3.0003 0 1 0 0,6h36.55468a3.0003,3.0003 0 1 0 0,-6zm-2.51954,20a3.0003,3.0003 0 1 0 0,6h36.81641a3.0003,3.0003 0 1 0 0,-6zm-3.18359,20a3.0003,3.0003 0 1 0 0,6h37.11523a3.0003,3.0003 0 1 0 0,-6zm-3.82617,20a3.0003,3.0003 0 1 0 0,6h37.35351a3.0003,3.0003 0 1 0 0,-6zM0,1145v235l80,80v-235zm286.55078,2a3.0003,3.0003 0 1 0 0,6h37.65625a3.0003,3.0003 0 1 0 0,-6zm-5.10937,20a3.0003,3.0003 0 1 0 0,6h38.02343a3.0003,3.0003 0 1 0 0,-6zm-5.75,20a3.0003,3.0003 0 1 0 0,6h38.44531a3.0003,3.0003 0 1 0 0,-6zm-6.39649,20a3.0003,3.0003 0 1 0 0,6h38.91406a3.0003,3.0003 0 1 0 0,-6zm-7.04101,20a3.0003,3.0003 0 1 0 0,6h39.39648a3.0003,3.0003 0 1 0 0,-6zm-7.69141,20a3.0003,3.0003 0 1 0 0,6h39.84375a3.0003,3.0003 0 1 0 0,-6zm-8.3418,20a3.0003,3.0003 0 1 0 0,6h40.33985a3.0003,3.0003 0 0 0 0.002,0 3.0003,3.0003 0 0 0 0.006,0h0.0391a3.0003,3.0003 0 0 0 0.16211,-5.9961 3.0003,3.0003 0 0 0 -0.17773,0h-0.0312zm-9,20a3.0003,3.0003 0 1 0 0,6h40.88282a3.0003,3.0003 0 1 0 0,-6zm-9.66015,20a3.0003,3.0003 0 1 0 0,6h41.46289a3.0003,3.0003 0 1 0 0,-6zm-9.125,20a3.0003,3.0003 0 1 0 0,6h40.87695a3.0003,3.0003 0 1 0 0,-6zm12.81836,20a3.0003,3.0003 0 1 0 0,6h17.70312 0.125a3.0003,3.0003 0 1 0 0,-6h-0.125zM0,1459.9551V1660l80,-80v-40.7676z" transform="matrix(-1 0 0 1 1300 0)"/></symbol><symbol id="H" preserveAspectRatio="none" viewBox="0 0 1300 2000"><path fill="#fc4" d="M0 0v602.5c0-9.665 23.505-17.5 52.5-17.5 20.365.008 38.879 3.942 47.5 10.092V397.393C208.286 356.236 247.222 289.517 265 215c-50.477 41.168-105.797 67.41-165 81.691V100L0 0zm0 602.5V635c0-7.263 13.907-13.493 33.711-16.141l.301-.002C13.571 616.294.027 609.78 0 602.5zM0 635v35c0-9.665 23.505-17.5 52.5-17.5 20.365.008 38.879 3.942 47.5 10.092v-17.535c-9.953 4.5-26.391 7.443-45 7.443-30.376 0-55-7.835-55-17.5zm0 35v1040l100-100V707.814c-7.793 5.741-23.892 9.686-42.5 9.686-26.234 0-47.5-7.835-47.5-17.5 0-5.867 7.837-11.059 19.863-14.234C11.64 682.863.028 676.733 0 670zm872.922-504.631C878.474 185.244 890 227.409 890 235c0 10-10 40-10 55s-10 70-20 95-45 90-50.285 100.826c2.871 18.592 22.06 32.816 42.186 38.035l-1.488-.033c-33.861 23.766-71.467 38.494-112.363 44.629-68.314 10.247-147.235-4.216-232.498-47.141l-.656.295c11.605-7.363 23.09-21.337 32.703-45.244C554.796 433.598 515 330 595 175c-67.978-.001-133.598 4.195-191.217 22.625-60.889 128.08-57.836 214.769-77.752 256.514C330 415 240 390 240 465c0 20.578 15.555 49.798 43.029 51.09 65.149 21.071 129.949 36.622 202.684 12.24a40.6 40.6 0 0 0 7.232-1.334l-10.629 4.787c93.453 50.018 181.504 68.032 258.699 56.453 52.213-7.832 99.7-29.078 141.033-63.695l-1.729-.039c9.594-2.607 17.178-8.654 20.148-18.941 24.05-28.32 34.2-44.003 46.781-61.896 2.826-6.006 3.973-13.878 2.75-23.664-5-40-49.999-20-49.881-4.727-3.373-10.432-5.12-21.981-4.975-35.377C914.503 387.622 940 374.143 940 350c0-40-40-5-40-5s16.804-123.51-17.262-178.781l-9.816-.85zm88.279 300.824c-55.633 80.517-130.651 128.836-217.217 141.82-88.049 13.207-187.444-9.831-290.957-69.645L445 540l27.33 31.725c96.126 49.651 189.63 68.817 274.621 56.068 70.778-10.617 134.609-43.834 186.826-96.937l-2.9 3.176 17.164 274.627 17.586-58.613-14.854-237.656c9.408-10.912 18.381-22.524 26.883-34.828l3.633-5.258-20.088-6.109zm72.141 19.826c26.259 105.355 79.358 198.02 165.481 268.012l1.105-38.525c-66.365-59.904-109.386-135.173-133.367-221.154l-33.219-8.332zm-668.078 55.541l151.07 170.174c-.862-.059-1.722-.103-2.578-.115-1.297-.018-2.586.017-3.863.105-10.219.706-19.688 4.787-26.588 11.688-11.544 11.544-15.19 30.278-8.35 47.686-5.928-1.859-11.945-2.542-17.723-2.143-10.219.706-19.689 4.787-26.59 11.688-9.67 9.67-13.793 24.386-10.859 39.141-4.226-.84-8.449-1.111-12.551-.828-10.219.706-19.689 4.787-26.59 11.688-9.617 9.617-13.748 24.224-10.908 38.896l-.85-.187a15 15 0 0 0-2.979-.311c-.87-.003-1.723.067-2.555.207l.389 2.127c-21.617-108.042-70.889-218.342-155.99-326.479l-63.596 41.584c3.825 14.65 9.89 37.279 10.846 53.52.352 5.977-.336 13.376-1.412 21.789 156.379 228.199 134.295 446.701 38.824 633.137 27.042 33.289 49.713 70.29 68.02 110.166 43.963-73.483 78.356-154.444 98.051-240.098l-.309 1.623 295.531-300.145 121.16 136.479 21.035-21.363L408.006 544.65l-42.742-3.09zM100 609.904c-5.459 3.883-15.005 6.963-26.826 8.654l.662-.006c10.648 1.235 19.751 3.489 26.164 6.389v-15.037zm0 67.5c-4.318 3.07-11.22 5.656-19.865 7.443l1.057-.02c8.065 1.713 14.629 4.275 18.809 7.354v-14.777zm738.641 20.332l-25.588 8.225C821.502 731.58 835.544 769.762 850 790c10.843 15.18 28.269 35.064 44.529 52.715 0 0 23.036-12.071 16.199-19.656C897.241 808.094 883.902 792.462 875 780c-14.126-19.776-27.856-56.685-36.359-82.264zm-51.791 14.543l-26.717 4.648C767.967 741.662 783.721 787.209 800 810c14.389 20.144 40.371 48.569 59.836 69.07 7.133 7.513 16.883-18.613 16.883-18.613C858.628 841.113 837.464 817.45 825 800c-15.166-21.233-29.875-62.216-38.15-87.721z" transform="matrix(-1 0 0 1 1300 0)"/></symbol><path id="I" d="M-52-100H52v200H-52z"/></defs><rect width="239" height="335" x="-119.5" y="-167.5" rx="12" fill="#fff" stroke="#000"/><use width="104" height="200" x="-52" y="-100" xlink:href="#H"/><use transform="rotate(180)" width="104" height="200" x="-52" y="-100" xlink:href="#H"/><use width="104" height="200" x="-52" y="-100" xlink:href="#G"/><use transform="rotate(180)" width="104" height="200" x="-52" y="-100" xlink:href="#G"/><use width="104" height="200" x="-52" y="-100" xlink:href="#F"/><use transform="rotate(180)" width="104" height="200" x="-52" y="-100" xlink:href="#F"/><use width="104" height="200" x="-52" y="-100" xlink:href="#E"/><use transform="rotate(180)" width="104" height="200" x="-52" y="-100" xlink:href="#E"/><use width="104" height="200" x="-52" y="-100" xlink:href="#D"/><use transform="rotate(180)" width="104" height="200" x="-52" y="-100" xlink:href="#D"/><use width="104" height="200" x="-52" y="-100" xlink:href="#C"/><use transform="rotate(180)" width="104" height="200" x="-52" y="-100" xlink:href="#C"/><use xlink:href="#A" height="70" width="70" x="-122" y="-156"/><use xlink:href="#B" height="58.558" width="58.558" x="-116.279" y="-81"/><use xlink:href="#B" height="34.4" width="34.4" x="-55.734" y="-97.2"/><g transform="rotate(180)"><use xlink:href="#A" height="70" width="70" x="-122" y="-156"/><use xlink:href="#B" height="58.558" width="58.558" x="-116.279" y="-81"/><use xlink:href="#B" height="34.4" width="34.4" x="-55.734" y="-97.2"/></g><use xlink:href="#I" stroke="#44f" fill="none"/></svg>